<?xml version="1.0" standalone="no"?><!DOCTYPE svg PUBLIC "-//W3C//DTD SVG 1.1//EN" "http://www.w3.org/Graphics/SVG/1.1/DTD/svg11.dtd"><svg t="1584184267145" class="icon" viewBox="0 0 1024 1024" version="1.1" xmlns="http://www.w3.org/2000/svg" p-id="1713" xmlns:xlink="http://www.w3.org/1999/xlink" width="200" height="200"><defs><style type="text/css"></style></defs><path d="M512 161.87392a292.57728 292.57728 0 0 1 292.57728 292.57728v19.49696H219.42272v-19.49696A292.57728 292.57728 0 0 1 512 161.87392zM219.42272 493.48608h585.15456V942.08H219.42272z" fill="#37B571" p-id="1714"></path><path d="M394.97728 317.93152h58.49088V376.4224H394.97728zM590.0288 317.93152h58.49088V376.4224h-58.49088z" fill="#FFFFFF" p-id="1715"></path><path d="M724.86912 141.7216l41.3696 41.3696-96.54272 96.50176-41.3696-41.3696zM299.13088 141.7216l-41.3696 41.3696L354.304 279.552l41.3696-41.3696zM102.4 512.98304h78.0288v273.03936H102.4zM843.5712 512.98304H921.6v273.03936h-78.0288z" fill="#37B571" p-id="1716"></path></svg>