<?xml version="1.0" standalone="no"?><!DOCTYPE svg PUBLIC "-//W3C//DTD SVG 1.1//EN" "http://www.w3.org/Graphics/SVG/1.1/DTD/svg11.dtd"><svg t="1584857753089" class="icon" viewBox="0 0 1060 1024" version="1.1" xmlns="http://www.w3.org/2000/svg" p-id="1091" xmlns:xlink="http://www.w3.org/1999/xlink" width="207.03125" height="200"><defs><style type="text/css"></style></defs><path d="M843.043659 1024H210.760915c-55.351351 0-100.058212-44.706861-100.058212-100.058212V100.058212c0-55.351351 44.706861-100.058212 100.058212-100.058212h452.390852c26.611227 0 52.158004 10.644491 70.253638 29.804574l179.891892 178.827443c19.160083 18.095634 29.804574 43.642412 29.804574 70.253638v645.056133c0 55.351351-44.706861 100.058212-100.058212 100.058212zM210.760915 63.866944c-20.224532 0-36.191268 15.966736-36.191268 36.191268v823.883576c0 20.224532 15.966736 36.191268 36.191268 36.191268h632.282744c20.224532 0 36.191268-15.966736 36.191268-36.191268V279.950104c0-9.580042-4.257796-19.160083-10.64449-25.546778L688.698545 74.511435c-6.386694-6.386694-15.966736-10.644491-25.546778-10.644491H210.760915z" fill="#4CA5ED" p-id="1092"></path><path d="M911.168399 306.561331H672.731809c-18.095634 0-31.933472-13.837838-31.933472-31.933472V36.191268c0-15.966736 12.773389-29.804574 28.740125-31.933472 22.35343-1.064449 44.706861 7.451143 60.673596 23.41788l191.600832 192.66528c13.837838 14.902287 20.224532 34.06237 20.224532 54.286903 0 17.031185-13.837838 30.869023-30.869023 31.933472z m-206.503118-63.866944h150.087318L704.665281 92.607069v150.087318zM0 459.841996h1060.191268v367.234927H0z" fill="#4CA5ED" p-id="1093"></path><path d="M158.602911 527.966736h110.702702c20.224532-1.064449 39.384615 5.322245 55.351352 17.031185 12.773389 10.644491 20.224532 27.675676 19.160083 44.706861 0 12.773389-3.193347 24.482328-10.644491 35.126819-7.451143 9.580042-17.031185 15.966736-28.740125 20.224532 13.837838 2.128898 26.611227 8.515593 36.191269 19.160083 8.515593 11.70894 13.837838 25.546778 12.773388 39.384616 2.128898 20.224532-7.451143 40.449064-23.417879 53.222453-18.095634 10.644491-39.384615 14.902287-60.673597 13.837838H158.602911V527.966736z m37.255717 30.869023v72.382536h63.866944c12.773389 1.064449 25.546778-2.128898 37.255717-8.515592 8.515593-7.451143 12.773389-18.095634 11.70894-28.740125 1.064449-10.644491-3.193347-20.224532-11.70894-26.611227-10.644491-6.386694-23.417879-9.580042-36.191268-8.515592h-64.931393z m0 103.251559v78.769231h69.189189c12.773389 1.064449 25.546778-2.128898 37.255717-7.451144 10.644491-6.386694 17.031185-18.095634 15.966736-30.869022 1.064449-11.70894-4.257796-23.417879-12.773389-30.869023-11.70894-7.451143-25.546778-10.644491-39.384615-9.580042h-70.253638zM497.097713 527.966736h42.577963l93.671517 242.694387h-40.449064l-22.35343-62.802495h-105.380458l-22.35343 62.802495h-39.384616l93.671518-242.694387z m-20.224532 150.087318h81.962578l-40.449065-109.638254h-1.064449l-40.449064 109.638254zM845.172557 527.966736h46.835759l-107.509356 105.380457 123.476092 138.378379h-50.029106l-98.993763-114.960499-31.933472 29.804574v84.091476h-36.191268V527.966736h37.255717v117.089397l117.089397-117.089397z" fill="#FFFFFF" p-id="1094"></path></svg>