<?xml version="1.0" standalone="no"?><!DOCTYPE svg PUBLIC "-//W3C//DTD SVG 1.1//EN" "http://www.w3.org/Graphics/SVG/1.1/DTD/svg11.dtd"><svg t="1584184315225" class="icon" viewBox="0 0 1024 1024" version="1.1" xmlns="http://www.w3.org/2000/svg" p-id="2123" xmlns:xlink="http://www.w3.org/1999/xlink" width="200" height="200"><defs><style type="text/css"></style></defs><path d="M665.6 51.2l204.8 204.8v665.6a51.2 51.2 0 0 1-51.2 51.2H204.8a51.2 51.2 0 0 1-51.2-51.2V102.4a51.2 51.2 0 0 1 51.2-51.2h460.8z" fill="#296EF2" p-id="2124"></path><path d="M665.6 51.2l204.8 204.8h-153.6a51.2 51.2 0 0 1-51.2-51.2V51.2z" fill="#75A4FE" p-id="2125"></path><path d="M224 608.6848c0-32.0192 8.7552-56.704 26.272-74.0352 15.232-15.104 34.6112-22.6496 58.1312-22.6496 31.4816 0 54.496 10.1184 69.056 30.3616 8.032 11.3664 12.352 22.7712 12.9408 34.2208h-39.0912c-2.5408-8.7936-5.7984-15.4304-9.7728-19.9104-7.1104-7.9616-17.6448-11.9488-31.6096-11.9488-14.208 0-25.4272 5.6256-33.632 16.864-8.2112 11.2384-12.3136 27.1488-12.3136 47.7184 0 20.576 4.3392 35.9808 13.0112 46.2272 8.672 10.24 19.6928 15.3664 33.0624 15.3664 13.7088 0 24.16-4.3968 31.3536-13.184 3.9744-4.736 7.2768-11.8272 9.9008-21.28h38.7136c-3.392 19.9872-12.0384 36.2496-25.9584 48.7744-13.92 12.5248-31.7568 18.7904-53.504 18.7904-26.9056 0-48.064-8.4608-63.4624-25.3824-15.3984-17.0048-23.0976-40.32-23.0976-69.9328zM478.9504 643.1296c1.1904 8.3136 3.52 14.528 6.9888 18.6432 6.3552 7.488 17.2352 11.2384 32.6528 11.2384 9.2288 0 16.7296-0.992 22.4832-2.9632 10.9312-3.7888 16.3904-10.8288 16.3904-21.12 0-6.0032-2.7072-10.656-8.128-13.952-5.4208-3.2064-13.9328-6.048-25.536-8.512l-19.8208-4.3264c-19.4816-4.2816-32.9472-8.928-40.4032-13.952-12.6208-8.3968-18.9312-21.5232-18.9312-39.3856 0-16.3008 6.0992-29.8432 18.2976-40.6272C475.1424 517.3888 493.056 512 516.6848 512c19.7376 0 36.5696 5.0816 50.496 15.2512 13.9392 10.1632 21.248 24.9216 21.92 44.2624h-37.6064c-0.6784-10.944-5.5872-18.7264-14.7392-23.3344-6.0928-3.0464-13.6768-4.5696-22.7392-4.5696-10.08 0-18.1248 1.9776-24.1408 5.9264s-9.0176 9.4656-9.0176 16.544c0 6.5024 2.9632 11.36 8.896 14.5728 3.808 2.1376 11.9424 4.6464 24.3904 7.5328l32.2688 7.5264c14.144 3.296 24.8192 7.6992 32.0192 13.216 11.1808 8.5568 16.768 20.9472 16.768 37.1648 0 16.6272-6.5408 30.432-19.6288 41.4208C562.4832 698.5024 544 704 520.1152 704c-24.3904 0-43.5776-5.4144-57.5552-16.2368-13.9712-10.8224-20.96-25.7024-20.96-44.6336h37.3504zM683.7504 643.1296c1.1904 8.3136 3.52 14.528 6.9888 18.6432 6.3552 7.488 17.2352 11.2384 32.6528 11.2384 9.2288 0 16.7296-0.992 22.4832-2.9632 10.9312-3.7888 16.3904-10.8288 16.3904-21.12 0-6.0032-2.7072-10.656-8.128-13.952-5.4208-3.2064-13.9328-6.048-25.536-8.512l-19.8208-4.3264c-19.4816-4.2816-32.9472-8.928-40.4032-13.952-12.6208-8.3968-18.9312-21.5232-18.9312-39.3856 0-16.3008 6.0992-29.8432 18.2976-40.6272 12.1984-10.784 30.112-16.1728 53.7408-16.1728 19.7376 0 36.5696 5.0816 50.496 15.2512 13.9392 10.1632 21.248 24.9216 21.92 44.2624h-37.6064c-0.6784-10.944-5.5872-18.7264-14.7392-23.3344-6.0928-3.0464-13.6768-4.5696-22.7392-4.5696-10.08 0-18.1248 1.9776-24.1408 5.9264s-9.0176 9.4656-9.0176 16.544c0 6.5024 2.9632 11.36 8.896 14.5728 3.808 2.1376 11.9424 4.6464 24.3904 7.5328l32.2688 7.5264c14.144 3.296 24.8192 7.6992 32.0192 13.216 11.1808 8.5568 16.768 20.9472 16.768 37.1648 0 16.6272-6.5408 30.432-19.6288 41.4208-13.088 10.9888-31.5712 16.4864-55.456 16.4864-24.3904 0-43.5776-5.4144-57.5552-16.2368-13.9712-10.8224-20.96-25.7024-20.96-44.6336h37.3504z" fill="#FFFFFF" p-id="2126"></path></svg>