<?xml version="1.0" standalone="no"?><!DOCTYPE svg PUBLIC "-//W3C//DTD SVG 1.1//EN" "http://www.w3.org/Graphics/SVG/1.1/DTD/svg11.dtd"><svg t="1584857740930" class="icon" viewBox="0 0 1060 1024" version="1.1" xmlns="http://www.w3.org/2000/svg" p-id="954" xmlns:xlink="http://www.w3.org/1999/xlink" width="207.03125" height="200"><defs><style type="text/css"></style></defs><path d="M843.043659 1024H210.760915c-55.351351 0-100.058212-44.706861-100.058212-100.058212V100.058212c0-55.351351 44.706861-100.058212 100.058212-100.058212h452.390852c26.611227 0 52.158004 10.644491 70.253638 29.804574l179.891892 178.827443c19.160083 18.095634 29.804574 43.642412 29.804574 70.253638v645.056133c0 55.351351-44.706861 100.058212-100.058212 100.058212zM210.760915 63.866944c-20.224532 0-36.191268 15.966736-36.191268 36.191268v823.883576c0 20.224532 15.966736 36.191268 36.191268 36.191268h632.282744c20.224532 0 36.191268-15.966736 36.191268-36.191268V279.950104c0-9.580042-4.257796-19.160083-10.64449-25.546778L688.698545 74.511435c-6.386694-6.386694-15.966736-10.644491-25.546778-10.644491H210.760915z" fill="#4CA5ED" p-id="955"></path><path d="M911.168399 306.561331H672.731809c-18.095634 0-31.933472-13.837838-31.933472-31.933472V36.191268c0-15.966736 12.773389-29.804574 28.740125-31.933472 22.35343-1.064449 44.706861 7.451143 60.673596 23.41788l191.600832 192.66528c13.837838 14.902287 20.224532 34.06237 20.224532 54.286903 0 17.031185-13.837838 30.869023-30.869023 31.933472z m-206.503118-63.866944h150.087318L704.665281 92.607069v150.087318zM0 459.841996h1060.191268v367.234927H0z" fill="#4CA5ED" p-id="956"></path><path d="M179.891892 527.966736h88.349272c39.384615 0 69.189189 10.644491 89.413722 32.997921s29.804574 51.093555 28.740124 88.349272c0 37.255717-9.580042 67.060291-29.804573 89.413722-20.224532 22.35343-50.029106 32.997921-89.413722 32.997921h-87.284823V527.966736z m37.255717 31.933472v179.891892h43.642412c30.869023 0 54.286902-7.451143 68.12474-22.353431 13.837838-14.902287 21.288981-37.255717 21.288981-68.12474 0-30.869023-7.451143-54.286902-21.288981-68.12474-13.837838-13.837838-36.191268-21.288981-67.060291-21.288981h-44.706861zM458.777547 527.966736h37.255717v211.825364h133.056133v31.933472h-170.31185V527.966736zM694.02079 527.966736h37.255717v211.825364h133.056133v31.933472h-170.31185V527.966736z" fill="#FFFFFF" p-id="957"></path></svg>