<?xml version="1.0" standalone="no"?><!DOCTYPE svg PUBLIC "-//W3C//DTD SVG 1.1//EN" "http://www.w3.org/Graphics/SVG/1.1/DTD/svg11.dtd"><svg t="1584184433051" class="icon" viewBox="0 0 1024 1024" version="1.1" xmlns="http://www.w3.org/2000/svg" p-id="3351" xmlns:xlink="http://www.w3.org/1999/xlink" width="200" height="200"><defs><style type="text/css"></style></defs><path d="M1024 204.8v750.08c0 38.4-35.84 69.12-79.36 69.12H79.36C35.84 1024 0 993.28 0 954.88V69.12C2.56 30.72 35.84 0 79.36 0h709.12L1024 204.8z" fill="#32BDAC" p-id="3352"></path><path d="M1024 204.8h-156.16c-43.52 0-79.36-30.72-79.36-69.12V0L1024 204.8z" fill="#A6E2DB" p-id="3353"></path><path d="M263.68 678.4v-110.08h512v110.08h-512z m337.92-143.36v-7.68c-2.56-46.08-40.96-81.92-87.04-79.36-43.52 2.56-76.8 35.84-79.36 79.36v7.68h-135.68v-7.68c2.56-120.32 104.96-217.6 225.28-209.92 115.2 2.56 207.36 97.28 209.92 209.92v7.68h-133.12z" fill="#FFFFFF" p-id="3354"></path></svg>