<?xml version="1.0" standalone="no"?><!DOCTYPE svg PUBLIC "-//W3C//DTD SVG 1.1//EN" "http://www.w3.org/Graphics/SVG/1.1/DTD/svg11.dtd"><svg t="1584185015270" class="icon" viewBox="0 0 1024 1024" version="1.1" xmlns="http://www.w3.org/2000/svg" p-id="9486" xmlns:xlink="http://www.w3.org/1999/xlink" width="200" height="200"><defs><style type="text/css"></style></defs><path d="M153.6 0h563.2l204.8 204.8v768a51.2 51.2 0 0 1-51.2 51.2H153.6a51.2 51.2 0 0 1-51.2-51.2V51.2a51.2 51.2 0 0 1 51.2-51.2z" fill="#5FA0FF" p-id="9487"></path><path d="M716.8 0l204.8 204.8h-153.6a51.2 51.2 0 0 1-51.2-51.2z" fill="#97C5FC" opacity=".9" p-id="9488"></path><path d="M376.576 711.424a25.6 25.6 0 0 1-18.176-7.424 25.6 25.6 0 0 1 0-36.352l99.584-99.328a25.6 25.6 0 0 1 36.096 0l71.68 71.68 107.264-107.52a25.6 25.6 0 0 1 36.352 36.352l-125.696 125.44a25.6 25.6 0 0 1-36.096 0l-71.424-71.68-81.408 81.408a25.6 25.6 0 0 1-18.176 7.424z" fill="#FFFFFF" p-id="9489"></path><path d="M407.04 434.688m-38.4 0a38.4 38.4 0 1 0 76.8 0 38.4 38.4 0 1 0-76.8 0Z" fill="#FFFFFF" p-id="9490"></path></svg>