<?xml version="1.0" standalone="no"?><!DOCTYPE svg PUBLIC "-//W3C//DTD SVG 1.1//EN" "http://www.w3.org/Graphics/SVG/1.1/DTD/svg11.dtd"><svg t="1584184349866" class="icon" viewBox="0 0 1024 1024" version="1.1" xmlns="http://www.w3.org/2000/svg" p-id="2533" xmlns:xlink="http://www.w3.org/1999/xlink" width="200" height="200"><defs><style type="text/css"></style></defs><path d="M944.123032 291.972171v653.744416c0 42.592457-35.23398 77.439766-78.306847 77.439766H155.348224c-43.072867 0-78.306847-34.847309-78.306847-77.439766V78.927865c0-42.592457 35.245698-77.439766 78.306847-77.439765h503.141706" fill="#44B080" p-id="2534"></path><path d="M658.48993 1.4881l285.633102 290.495789H690.431344s-25.778103-9.830831-31.929696-39.335042z" fill="#4AC590" p-id="2535"></path><path d="M298.979129 569.028195h-73.151227v-68.476016h-36.921274v174.11937h36.921274v-72.623947h73.151227v72.623947h36.921274v-174.11937h-36.921274v68.476016zM345.391432 533.571585h53.782497v141.099964h36.921274V533.571585h53.77078v-33.019406h-144.474551v33.019406zM592.158184 622.693519l-52.997437-122.14134h-39.803735v174.11937h36.932992v-95.69535l40.834859 95.69535h29.844013l40.846576-95.69535v95.69535h36.921274v-174.11937h-39.803734l-52.774808 122.14134zM743.569389 641.652142V500.552179h-36.698646v174.11937h125.398755v-33.019407h-88.700109z" fill="#F5F5F5" p-id="2536"></path></svg>