<?xml version="1.0" standalone="no"?><!DOCTYPE svg PUBLIC "-//W3C//DTD SVG 1.1//EN" "http://www.w3.org/Graphics/SVG/1.1/DTD/svg11.dtd"><svg t="1584857773008" class="icon" viewBox="0 0 1024 1024" version="1.1" xmlns="http://www.w3.org/2000/svg" p-id="1228" xmlns:xlink="http://www.w3.org/1999/xlink" width="200" height="200"><defs><style type="text/css"></style></defs><path d="M1.264376 1.257151h1021.478473v1021.492923H1.264376z" fill="#769AFF" p-id="1229"></path><path d="M1.264376 1.257151l1021.471248 1021.485698M1.264376 1022.742849L1022.735624 1.257151" fill="#769AFF" p-id="1230"></path><path d="M496.957539 456.71426c-30.431722 0-55.191815 24.760093-55.191815 55.191815 0 30.424497 24.760093 55.18459 55.191815 55.18459 30.438947 0 55.191815-24.760093 55.191815-55.18459 0-30.438947-24.752868-55.191815-55.191815-55.191815z" fill="#FFFFFF" p-id="1231"></path><path d="M496.957539 86.346038c-234.653722 0-425.545587 190.89909-425.545587 425.552812s190.89909 425.552812 425.545587 425.552812c234.653722 0 425.560037-190.89909 425.560037-425.552812s-190.91354-425.552812-425.560037-425.552812z m0 561.700812c-75.07503 0-136.155225-61.065745-136.155225-136.148 0-75.07503 61.080195-136.155225 136.155225-136.155225 75.082255 0 136.155225 61.080195 136.155225 136.155225 0 75.082255-61.07297 136.148-136.155225 136.148z" fill="#FFFFFF" p-id="1232"></path></svg>