<?xml version="1.0" standalone="no"?><!DOCTYPE svg PUBLIC "-//W3C//DTD SVG 1.1//EN" "http://www.w3.org/Graphics/SVG/1.1/DTD/svg11.dtd"><svg t="1584184225263" class="icon" viewBox="0 0 1024 1024" version="1.1" xmlns="http://www.w3.org/2000/svg" p-id="1304" xmlns:xlink="http://www.w3.org/1999/xlink" width="200" height="200"><defs><style type="text/css"></style></defs><path d="M896 853.333333c0 46.933333-38.4 85.333333-85.333333 85.333334H213.333333c-46.933333 0-85.333333-38.4-85.333333-85.333334V170.666667c0-46.933333 38.4-85.333333 85.333333-85.333334h426.666667l256 256v512z" fill="#FEAB00" p-id="1305"></path><path d="M388.266667 729.6c29.866667 0 46.933333-8.533333 59.733333-21.333333 12.8-12.8 17.066667-34.133333 17.066667-64v-166.4H426.666667V640c0 17.066667-4.266667 29.866667-8.533334 38.4-4.266667 8.533333-17.066667 12.8-29.866666 12.8-25.6 0-34.133333-12.8-34.133334-42.666667V640h-38.4v8.533333c0 25.6 8.533333 42.666667 21.333334 55.466667 8.533333 21.333333 29.866667 25.6 51.2 25.6z m217.6 0c29.866667 0 55.466667-8.533333 72.533333-17.066667 17.066667-12.8 25.6-29.866667 25.6-51.2s-8.533333-38.4-29.866667-51.2c-8.533333-4.266667-29.866667-12.8-64-25.6-21.333333-8.533333-38.4-12.8-42.666666-17.066666-12.8-4.266667-17.066667-12.8-17.066667-25.6s4.266667-21.333333 17.066667-25.6c8.533333-4.266667 21.333333-8.533333 34.133333-8.533334 17.066667 0 29.866667 4.266667 38.4 8.533334 8.533333 8.533333 17.066667 17.066667 17.066667 34.133333h38.4c-4.266667-25.6-12.8-46.933333-29.866667-59.733333-17.066667-12.8-38.4-17.066667-68.266667-17.066667-25.6 0-46.933333 4.266667-64 17.066667-17.066667 12.8-25.6 29.866667-25.6 51.2s8.533333 38.4 29.866667 51.2c8.533333 4.266667 25.6 12.8 55.466667 21.333333 25.6 8.533333 42.666667 12.8 46.933333 17.066667 17.066667 8.533333 21.333333 17.066667 21.333333 29.866666 0 8.533333-4.266667 17.066667-17.066666 25.6-8.533333 4.266667-25.6 8.533333-42.666667 8.533334-21.333333 0-34.133333-4.266667-42.666667-8.533334-8.533333-8.533333-17.066667-21.333333-21.333333-38.4h-38.4c0 29.866667 12.8 55.466667 34.133333 68.266667 21.333333 8.533333 42.666667 12.8 72.533334 12.8z" fill="#FFFFFF" p-id="1306"></path><path d="M640 85.333333l256 256h-170.666667c-46.933333 0-85.333333-38.4-85.333333-85.333333V85.333333z" fill="#070A1A" fill-opacity=".2" p-id="1307"></path></svg>