<?xml version="1.0" standalone="no"?><!DOCTYPE svg PUBLIC "-//W3C//DTD SVG 1.1//EN" "http://www.w3.org/Graphics/SVG/1.1/DTD/svg11.dtd"><svg t="1584184523006" class="icon" viewBox="0 0 1024 1024" version="1.1" xmlns="http://www.w3.org/2000/svg" p-id="4352" xmlns:xlink="http://www.w3.org/1999/xlink" width="200" height="200"><defs><style type="text/css"></style></defs><path d="M920.908 181.532L795.741 51.483C768.462 23.215 714.684 0 676.101 0H255.479c-38.587 0-70.073 32.771-70.073 72.778v352.313h56.071V72.784c0-7.926 6.511-14.544 14.064-14.544h420.613c4.137 0 8.947 0.552 14.002 1.562v231.375H913.01c0.994 5.262 1.522 34.005 1.522 38.441v621.606c0 7.923-6.518 14.531-14.069 14.531H255.479c-7.633 0-14.066-6.741-14.066-14.524v-105.19h-56.084v105.188c0 40.071 31.494 72.771 70.081 72.771h644.986c38.603 0 70.082-32.698 70.082-72.771V329.688c0.068-40.084-22.276-119.879-49.57-148.156z m-173.551 57.597V93.63a65.953 65.953 0 0 1 9.835 8.283l125.77 127.132a77.266 77.266 0 0 1 8.255 10.085l-143.86-0.001z" fill="#26E8ED" p-id="4353"></path><path d="M796.268 441.845H93.521c-22.091 0-40 17.909-40 40V756.6c0 22.094 17.909 40 40 40h702.746c22.093 0 40-17.906 40-40V481.845c0.001-22.092-17.909-40-39.999-40z m-569.07 83.489v133.988c0 19.076-4.563 33.291-13.688 42.645-9.127 9.355-24.143 14.031-45.053 14.031-9.171 0-19.076-0.963-29.714-2.889v-36.453c8.712 1.467 16.186 2.199 22.423 2.199 5.503 0 9.836-0.984 13-2.957 3.164-1.972 5.479-4.38 6.947-7.224 1.466-2.84 2.201-7.793 2.201-14.854V525.334h43.884z m165.49 41.27l-37.416 12.52c-5.034-14.857-15.693-22.285-31.979-22.285-17.385 0-26.075 5.639-26.075 16.92 0 4.494 1.625 8.301 4.878 11.418 3.249 3.119 10.6 5.826 22.046 8.125 19.14 3.861 33.151 7.767 42.037 11.707 8.884 3.941 16.37 10.291 22.462 19.049 6.092 8.757 9.138 18.543 9.138 29.363 0 16.963-6.529 31.633-19.586 44.012-13.059 12.38-32.413 18.566-58.068 18.566-19.242 0-35.621-4.377-49.137-13.137-13.516-8.756-22.425-21.756-26.73-39l40.719-9.217c4.576 17.518 17.299 26.274 38.166 26.274 10.067 0 17.571-1.947 22.517-5.846 4.94-3.898 7.413-8.551 7.413-13.963 0-5.504-2.244-9.769-6.732-12.795-4.487-3.025-13.142-5.869-25.961-8.533-23.903-4.955-40.938-11.724-51.104-20.297-10.166-8.574-15.248-21.113-15.248-37.619 0-16.688 6.067-30.767 18.207-42.229 12.141-11.461 28.609-17.192 49.407-17.192 36.825 0 60.509 14.721 71.046 44.159zM497.03 715.998c-25.29 0-44.854-9.492-58.69-28.475-13.836-18.984-20.753-41.957-20.753-68.921 0-27.42 7.01-50.301 21.028-68.645 14.019-18.342 33.995-27.514 59.929-27.514 26.205 0 45.975 9.791 59.307 29.371 13.33 19.58 19.998 41.979 19.998 67.198 0 27.238-6.873 50.211-20.616 68.92-13.748 18.714-33.814 28.066-60.203 28.066z m1.237-157.648c-23.063 0-34.596 20.271-34.596 60.806 0 40.629 11.532 60.938 34.596 60.938 22.332 0 33.498-20.266 33.498-60.803 0-40.627-11.166-60.941-33.498-60.941z m252.776-33.016v187.775h-37.529L640.03 586.275c0.09 3.211 0.183 5.319 0.274 6.327 0.365 3.212 0.551 5.916 0.551 8.117v112.39h-34.253V525.334h47.409l63.879 110.74c-0.551-5.502-0.824-9.677-0.824-12.521v-98.221l33.977 0.002z" fill="#26E8ED" p-id="4354"></path></svg>