<?xml version="1.0" standalone="no"?><!DOCTYPE svg PUBLIC "-//W3C//DTD SVG 1.1//EN" "http://www.w3.org/Graphics/SVG/1.1/DTD/svg11.dtd"><svg t="1584184609877" class="icon" viewBox="0 0 1024 1024" version="1.1" xmlns="http://www.w3.org/2000/svg" p-id="5165" xmlns:xlink="http://www.w3.org/1999/xlink" width="200" height="200"><defs><style type="text/css"></style></defs><path d="M935.669009 238.213895 715.840749 17.586261C703.850117 6.395004 688.661983 0 671.875098 0L138.691647 0c-33.57377 0-61.551913 27.178767-61.551913 61.551913l0 900.896175c0 33.57377 27.178767 61.551913 61.551913 61.551913l753.811085 0c33.57377 0 61.551913-27.178767 61.551913-61.551913L954.054645 281.380172C954.054645 265.392662 947.659641 250.204528 935.669009 238.213895zM661.483216 101.520687c0-12.790008 15.188134-19.185012 24.78064-10.391881L863.725215 267.790788c8.79313 8.79313 2.398126 24.78064-10.391881 24.78064L675.871975 292.571429c-7.993755 0-14.388759-6.395004-14.388759-14.388759L661.483216 101.520687zM880.5121 936.868072c0 7.194379-5.595628 12.790008-12.790008 12.790008L163.472287 949.65808c-7.194379 0-12.790008-5.595628-12.790008-12.790008L150.682279 86.332553c0-7.194379 5.595628-12.790008 12.790008-12.790008L575.950039 73.542545c7.194379 0 12.790008 5.595628 12.790008 12.790008L588.740047 311.75644c0 29.576893 23.981265 54.357533 54.357533 54.357533l225.423888 0c7.194379 0 12.790008 5.595628 12.790008 12.790008l0 557.964091L880.5121 936.868072z" p-id="5166" fill="#13227a"></path><path d="M248.206089 863.325527l0-19.185012c0-7.194379 5.595628-13.589383 13.589383-13.589383l0.799375 0c15.98751 0 25.580016-9.592506 30.376269-27.978142 0-15.98751 0.799375-37.570648 1.598751-63.150664 0.799375-25.580016 0.799375-56.75566 0.799375-91.928181l0-27.178767L295.369243 599.531616l0-15.98751 0-13.589383L295.369243 559.562842l0-7.993755c0-17.586261-0.799375-28.777518-2.398126-32.774395-3.197502-19.185012-12.790008-28.777518-29.576893-28.777518l-0.799375 0c-7.194379 0-13.589383-5.595628-13.589383-13.589383l0-19.984387c0-7.194379 5.595628-13.589383 13.589383-13.589383l107.915691 0c5.595628 0 10.391881 3.197502 11.990632 7.993755l134.295082 309.358314c4.796253 10.391881 19.984387 10.391881 23.981265 0l134.295082-309.358314c2.398126-4.796253 7.194379-7.993755 11.990632-7.993755l107.915691 0c7.194379 0 13.589383 5.595628 13.589383 13.589383l0 19.984387c0 7.194379-5.595628 13.589383-13.589383 13.589383l-0.799375 0c-19.984387 0-29.576893 11.990632-29.576893 36.771272 0 23.181889 0 46.363778-0.799375 68.746292-0.799375 22.382514-0.799375 44.765027-1.598751 65.54879l0 17.586261c0 72.743169 0.799375 115.909446 3.197502 130.298205 2.398126 14.388759 11.990632 21.583138 29.576893 21.583138l0 0c7.194379 0 13.589383 5.595628 13.589383 13.589383l0 19.185012c0 7.194379-5.595628 13.589383-13.589383 13.589383L671.875098 876.91491c-7.194379 0-13.589383-5.595628-13.589383-13.589383 0 0 0-11.990632 0-19.984387 0-13.589383 11.191257-12.790008 11.191257-12.790008 19.984387 0 30.376269-11.990632 30.376269-35.971897L699.85324 613.120999c0-14.388759-19.984387-18.385636-25.580016-4.796253l-110.313817 259.797034c-2.398126 4.796253-7.194379 7.993755-11.990632 7.993755l-46.363778 0c-5.595628 0-10.391881-3.197502-11.990632-7.993755L382.501171 608.324746c-5.595628-13.589383-25.580016-9.592506-25.580016 4.796253l0 181.458236c0 23.981265 9.592506 35.971897 30.376269 35.971897 0 0 11.191257-0.799375 11.191257 13.589383 0 7.993755 0 19.185012 0 19.185012 0 7.194379-5.595628 13.589383-13.589383 13.589383L261.795472 876.91491C254.601093 876.115535 248.206089 870.519906 248.206089 863.325527z" p-id="5167" fill="#13227a"></path></svg>