<?xml version="1.0" standalone="no"?><!DOCTYPE svg PUBLIC "-//W3C//DTD SVG 1.1//EN" "http://www.w3.org/Graphics/SVG/1.1/DTD/svg11.dtd"><svg t="1599638374723" class="icon" viewBox="0 0 1024 1024" version="1.1" xmlns="http://www.w3.org/2000/svg" p-id="5174" xmlns:xlink="http://www.w3.org/1999/xlink" width="200" height="200"><defs><style type="text/css"></style></defs><path d="M385.5 481.9H203.4c-52.9 0-96-43.1-96-96V203.8c0-52.9 43.1-96 96-96h182.1c52.9 0 96 43.1 96 96v182.1c0 52.9-43.1 96-96 96zM203.4 171.8c-17.6 0-32 14.4-32 32v182.1c0 17.6 14.4 32 32 32h182.1c17.6 0 32-14.4 32-32V203.8c0-17.6-14.4-32-32-32H203.4zM385.5 916.2H203.4c-52.9 0-96-43.1-96-96V638.1c0-52.9 43.1-96 96-96h182.1c52.9 0 96 43.1 96 96v182.1c0 52.9-43.1 96-96 96zM203.4 606.1c-17.6 0-32 14.4-32 32v182.1c0 17.6 14.4 32 32 32h182.1c17.6 0 32-14.4 32-32V638.1c0-17.6-14.4-32-32-32H203.4zM820.6 916.2H638.5c-52.9 0-96-43.1-96-96V638.1c0-52.9 43.1-96 96-96h182.1c52.9 0 96 43.1 96 96v182.1c0 52.9-43.1 96-96 96zM638.5 606.1c-17.6 0-32 14.4-32 32v182.1c0 17.6 14.4 32 32 32h182.1c17.6 0 32-14.4 32-32V638.1c0-17.6-14.4-32-32-32H638.5zM734.5 481.9c-105.9 0-192-86.1-192-192s86.1-192 192-192 192 86.1 192 192-86.1 192-192 192z m0-320.1c-70.6 0-128 57.4-128 128s57.4 128 128 128 128-57.4 128-128-57.4-128-128-128z" fill="#393d49" p-id="5175"></path></svg>