<?xml version="1.0" standalone="no"?><!DOCTYPE svg PUBLIC "-//W3C//DTD SVG 1.1//EN" "http://www.w3.org/Graphics/SVG/1.1/DTD/svg11.dtd"><svg t="1608191001003" class="icon" viewBox="0 0 1024 1024" version="1.1" xmlns="http://www.w3.org/2000/svg" p-id="3393" xmlns:xlink="http://www.w3.org/1999/xlink" width="200" height="200"><defs><style type="text/css"></style></defs><path d="M431.146667 128H188.586667A60.586667 60.586667 0 0 0 128 188.586667v242.56a60.586667 60.586667 0 0 0 60.586667 60.586666h242.56a60.586667 60.586667 0 0 0 60.586666-60.586666V188.586667A60.586667 60.586667 0 0 0 431.146667 128z m20.266666 303.146667a21.333333 21.333333 0 0 1-20.266666 20.266666H188.586667a21.333333 21.333333 0 0 1-21.333334-20.266666V188.586667a21.333333 21.333333 0 0 1 21.333334-21.333334h242.56a21.333333 21.333333 0 0 1 20.266666 21.333334zM835.413333 128H592.853333A60.586667 60.586667 0 0 0 533.333333 188.586667v242.56a60.586667 60.586667 0 0 0 60.586667 60.586666h241.493333A60.586667 60.586667 0 0 0 896 431.146667V188.586667A60.586667 60.586667 0 0 0 835.413333 128z m21.333334 303.146667a21.333333 21.333333 0 0 1-21.333334 20.266666H592.853333a21.333333 21.333333 0 0 1-20.266666-20.266666V188.586667a21.333333 21.333333 0 0 1 20.266666-21.333334h242.56a21.333333 21.333333 0 0 1 21.333334 21.333334zM431.146667 533.333333H188.586667A60.586667 60.586667 0 0 0 128 592.853333v242.56A60.586667 60.586667 0 0 0 188.586667 896h242.56a60.586667 60.586667 0 0 0 60.586666-60.586667V592.853333A60.586667 60.586667 0 0 0 431.146667 533.333333z m20.266666 303.146667a21.333333 21.333333 0 0 1-20.266666 21.333333H188.586667a21.333333 21.333333 0 0 1-21.333334-21.333333V592.853333a21.333333 21.333333 0 0 1 21.333334-20.266666h242.56a21.333333 21.333333 0 0 1 20.266666 20.266666zM835.413333 533.333333H592.853333A60.586667 60.586667 0 0 0 533.333333 592.853333v242.56A60.586667 60.586667 0 0 0 592.853333 896h242.56A60.586667 60.586667 0 0 0 896 835.413333V592.853333A60.586667 60.586667 0 0 0 835.413333 533.333333z m21.333334 303.146667a21.333333 21.333333 0 0 1-21.333334 21.333333H592.853333a21.333333 21.333333 0 0 1-20.266666-21.333333V592.853333a21.333333 21.333333 0 0 1 20.266666-20.266666h242.56a21.333333 21.333333 0 0 1 21.333334 20.266666z" p-id="3394" fill="#393d49"></path></svg>