<?xml version="1.0" standalone="no"?><!DOCTYPE svg PUBLIC "-//W3C//DTD SVG 1.1//EN" "http://www.w3.org/Graphics/SVG/1.1/DTD/svg11.dtd"><svg t="1653912753640" class="icon" viewBox="0 0 1024 1024" version="1.1" xmlns="http://www.w3.org/2000/svg" p-id="1265" xmlns:xlink="http://www.w3.org/1999/xlink" width="200" height="200"><defs><style type="text/css">@font-face { font-family: feedback-iconfont; src: url("//at.alicdn.com/t/font_1031158_u69w8yhxdu.woff2?t=1630033759944") format("woff2"), url("//at.alicdn.com/t/font_1031158_u69w8yhxdu.woff?t=1630033759944") format("woff"), url("//at.alicdn.com/t/font_1031158_u69w8yhxdu.ttf?t=1630033759944") format("truetype"); }
</style></defs><path d="M927.062 443.768h-12.313c-6.669-0.513-12.312 5.13-12.825 11.8-0.513 6.668 5.13 12.312 11.8 12.825h13.338v12.312c0.513 6.67 5.643 11.8 12.313 11.8s11.8-5.13 12.312-11.8v-12.312H964c6.67-0.513 11.8-6.157 11.8-12.826-0.514-6.156-5.13-11.286-11.8-11.8h-12.313v-12.312c-0.513-6.67-5.643-11.8-12.312-11.8-6.67 0-11.8 5.13-12.313 11.8v12.313zM47.735 234.966c0 7.695 4.105 15.39 11.287 18.982 6.67 4.104 15.39 4.104 22.06 0 6.67-4.104 11.287-11.287 11.287-18.982s-4.105-15.39-11.287-18.982c-6.67-4.104-15.39-4.104-22.06 0-7.182 4.104-11.287 11.287-11.287 18.982" p-id="1266" fill="#bfbfbf"></path><path d="M796.24 788.008L680.81 507.896H210.877L94.934 788.008h-3.078v235.479h707.463V788.008z" p-id="1267" fill="#bfbfbf"></path><path d="M799.319 1023.487H91.856V787.495h3.078l115.944-279.6h469.931l115.944 280.113h2.052l1.027 6.67-0.513 228.809z m-694.125-12.826H785.98l-0.513-213.419-113.892-276.008H219.599L105.194 797.756v212.905z" p-id="1268" fill="#bfbfbf"></path><path d="M212.93 697.202L104.68 1006.044l13.852 4.617L226.78 701.82l-13.851-4.618z m465.827 0l108.249 308.842-13.852 4.617L664.906 701.82l13.851-4.618z" p-id="1269" fill="#bfbfbf"></path><path d="M371.968 788.008H91.856V1024h707.463V788.008H519.206c0.513 26.677-13.851 51.303-36.425 64.641-23.086 13.339-51.302 13.339-74.388 0-22.573-13.338-36.938-37.964-36.425-64.641" p-id="1270" fill="#bfbfbf"></path><path d="M799.319 1023.487H91.856V787.495h279.599l0.513 6.156c3.078 37.964 35.399 67.72 73.363 67.72s70.284-29.756 73.362-67.72l0.513-6.156h279.6l0.513 235.992z m-694.125-12.826H785.98V801.347H531.519c-6.67 41.555-43.094 73.875-86.188 73.875s-79.52-31.807-86.189-73.875H105.194v209.314z m635.127-768l103.118 44.12 58.998-221.114L740.32 242.661zM902.437 65.667L622.325 198.541l88.24 44.12L902.437 65.667zM740.32 257.027v73.875l44.12-44.12-44.12-29.756z" p-id="1271" fill="#bfbfbf"></path><path d="M209.852 507.896h471.47v206.236h-471.47z" p-id="1272" fill="#bfbfbf"></path><path d="M681.323 714.132H209.852V507.896h471.47v206.236zM223.19 700.794h445.307V520.72H223.19v180.073z" p-id="1273" fill="#bfbfbf"></path><path d="M338.621 654.108l26.164-13.851c3.592-2.053 4.618-6.157 2.566-9.748s-6.157-4.617-9.748-3.078c-8.721 4.617-17.443 9.234-26.164 13.339-3.591 2.052-5.13 6.156-3.078 9.747 2.052 4.104 6.669 5.643 10.26 3.591m52.329-28.216c8.721-5.13 16.93-10.26 25.138-15.904 3.591-2.052 4.104-6.67 2.052-10.26s-6.67-4.105-10.26-2.053c-8.209 5.644-16.417 10.774-24.626 15.391-3.59 2.052-4.617 6.67-2.565 9.748 2.052 3.59 6.67 5.13 10.26 3.078z m49.25-33.347c8.209-6.156 15.904-12.313 23.086-18.982 3.079-2.565 3.079-7.182 0.513-10.26-2.565-3.079-7.182-3.079-10.26-0.513-6.67 6.156-14.365 12.312-22.06 18.469-3.078 2.565-3.591 7.182-1.026 10.26 2.052 2.565 6.67 3.078 9.747 1.026m45.147-40.529c6.669-7.695 13.338-15.39 18.982-23.6 2.052-3.077 1.026-7.695-2.053-9.747-3.078-2.052-7.695-1.539-10.26 1.54-5.643 7.695-11.287 15.39-17.956 22.06-2.565 3.078-2.565 7.695 0.513 10.26s7.695 2.565 10.774-0.513m34.885-50.79c-1.539 3.592-6.156 5.644-9.747 3.592-3.591-1.54-5.643-6.157-3.591-9.748v-0.513c4.104-8.721 7.182-17.443 9.747-26.164 1.026-4.104 5.13-6.157 9.235-5.13 3.59 1.026 6.156 5.13 5.13 8.721-2.565 10.26-6.156 20.008-10.774 29.242m14.365-60.024c-0.513-11.286-4.104-22.06-10.773-31.807-2.566-3.591-6.67-4.104-10.261-2.052-3.591 2.565-4.104 6.669-2.052 10.26 4.617 6.67 7.695 14.878 8.208 24.112 0.513 4.105 4.105 7.183 8.209 6.67 4.104 0 7.182-3.078 6.67-7.183m-35.913-53.354c-9.747-5.13-20.008-8.209-30.268-9.748-2.565-0.513-5.13 0.513-7.183 2.565-1.539 2.052-2.052 5.13-1.026 7.183 1.026 2.565 3.078 4.104 5.644 4.617 9.234 1.539 17.442 4.104 25.65 8.208 2.566 1.54 5.131 1.54 7.696 0 2.052-1.539 3.591-4.104 3.591-6.669s-2.052-5.13-4.104-6.156m-63.102-9.748c-12.826 2.052-23.086 7.183-30.782 13.852-3.078 2.565-3.078 7.695-0.513 10.26 1.026 1.026 2.053 1.54 3.079 2.053 2.565 0.513 5.13 0 7.182-1.54 5.13-4.617 13.339-8.208 23.086-10.26 2.565-0.513 4.617-2.052 5.643-4.617 1.54-3.591-0.513-8.209-4.617-9.235-0.513-0.513-2.052-0.513-3.078-0.513m-40.016 49.25c2.565 8.722 8.208 18.47 16.93 28.217 2.565 3.078 7.182 3.078 10.26 0.513 3.079-2.565 3.079-7.182 0.513-10.26-7.182-8.209-11.8-15.904-13.851-22.574a6.59 6.59 0 0 0-5.13-5.13c-2.566-0.513-5.13 0-7.183 2.052-1.539 2.052-2.052 4.618-1.539 7.183m41.555 49.25c8.722 6.157 18.469 10.26 28.73 13.339 4.104 1.026 8.208-1.54 9.234-5.13 1.026-3.592-1.026-7.696-5.13-8.722-8.722-2.565-16.93-6.67-24.625-11.286-3.592-2.053-7.696-1.026-9.748 2.052-2.565 3.078-1.539 7.695 1.54 9.747m60.536 17.443c-4.104 0-7.695-3.078-7.695-7.182 0-4.104 3.078-7.696 7.182-7.696 9.235-0.513 18.47-2.052 27.19-4.617 2.566-1.026 5.13-0.513 7.183 1.54 3.078 2.564 3.078 7.182 0.513 10.26-1.026 1.026-2.052 1.539-3.591 2.052-9.748 3.078-20.008 5.13-30.782 5.643m61.05-18.469c8.722-4.617 17.443-10.26 25.652-15.904 3.078-2.565 3.59-6.669 1.539-10.26-2.052-3.078-6.67-4.104-10.26-2.052-8.21 5.643-16.418 10.773-24.113 14.877-2.565 1.027-4.104 3.592-4.104 6.157s1.026 5.13 3.59 6.67c2.566 2.051 5.131 2.051 7.696 0.512m48.225-33.86a417.466 417.466 0 0 0 22.06-20.52c2.565-3.079 2.565-7.696-0.513-10.261s-7.183-2.565-10.26 0c-6.67 6.67-13.852 13.339-21.035 20.008-3.078 2.565-3.078 7.695-0.513 10.26 3.078 2.566 7.696 2.566 10.26 0.513m42.582-43.607c6.67-7.695 12.826-15.39 18.469-23.599 2.052-3.078 1.539-7.695-1.54-10.26s-7.695-2.053-10.26 1.026c-5.643 7.695-11.8 15.39-17.956 22.573-2.565 3.078-2.052 7.695 1.026 10.26 3.079 3.078 7.696 3.078 10.26 0m36.426-48.737c5.643-8.209 10.773-16.417 15.904-25.139 2.052-3.59 1.026-8.208-2.566-10.26-3.59-2.052-8.208-1.026-10.26 2.565l-15.39 24.625c-1.54 2.052-2.053 5.13-0.514 7.696 1.026 2.565 3.591 4.104 6.156 4.104 2.566 0.513 5.13-1.026 6.67-3.591m30.268-50.277c3.078-5.643 5.644-10.773 8.722-16.417 1.539-3.59 0-8.208-4.104-9.747-3.592-1.54-7.696 0-9.235 3.078-2.565 5.643-5.643 10.774-8.208 15.904-2.052 3.591-0.513 8.208 3.078 9.747 3.591 2.565 8.208 1.026 9.747-2.565M445.844 72.337c-20.008 0-35.912-16.417-35.912-35.912 0-20.008 16.417-35.912 35.912-35.912 20.008 0 35.911 16.417 35.911 35.912s-15.903 35.912-35.911 35.912m0-58.998c-12.826 0-23.087 10.26-23.087 23.086s10.26 23.086 23.087 23.086 23.086-10.26 23.086-23.086c-0.513-12.826-10.774-23.086-23.086-23.086" p-id="1274" fill="#bfbfbf"></path></svg>