<?xml version="1.0" standalone="no"?><!DOCTYPE svg PUBLIC "-//W3C//DTD SVG 1.1//EN" "http://www.w3.org/Graphics/SVG/1.1/DTD/svg11.dtd"><svg t="1584184421984" class="icon" viewBox="0 0 1024 1024" version="1.1" xmlns="http://www.w3.org/2000/svg" p-id="3214" xmlns:xlink="http://www.w3.org/1999/xlink" width="200" height="200"><defs><style type="text/css"></style></defs><path d="M651.85 0H148.31c-33.85 0-59.24 25.39-59.24 59.77v904.46c0 34.38 25.39 59.77 59.77 59.77H874c34.38 0 59.77-25.39 59.77-59.77V281.39z" fill="#FB5222" p-id="3215"></path><path d="M652.78 221.62c0 34.38 25.39 59.77 59.77 59.77h221.62L652.78 0z" fill="#FA8E6F" p-id="3216"></path><path d="M219.8 798.27v-226.2h85.33q22.51 0 34.4 2.16 16.67 2.77 27.93 10.57t18.13 21.83a69.27 69.27 0 0 1 6.87 30.86q0 28.86-18.36 48.83t-66.35 20h-58v92z m29.93-118.66h58.48q29 0 41.2-10.8t12.19-30.39q0-14.2-7.18-24.31a33.54 33.54 0 0 0-18.9-13.34q-7.56-2-27.93-2h-57.86z m180.84 118.66v-226.2h77.92q26.38 0 40.27 3.24 19.44 4.47 33.17 16.2 17.91 15.12 26.77 38.65t8.88 53.77q0 25.77-6 45.67t-15.43 32.95a82.07 82.07 0 0 1-20.6 20.52q-11.19 7.48-27 11.34a154.26 154.26 0 0 1-36.34 3.86z m29.93-26.7h48.3q22.37 0 35.1-4.16t20.29-11.73q10.65-10.65 16.59-28.62t5.94-43.59q0-35.49-11.65-54.54t-28.32-25.54q-12-4.64-38.72-4.63H460.5z m199.82 26.7v-226.2h152.6v26.69H690.25v70h106.16v26.74H690.25v102.77z" fill="#FFFFFF" p-id="3217"></path></svg>