<?xml version="1.0" standalone="no"?><!DOCTYPE svg PUBLIC "-//W3C//DTD SVG 1.1//EN" "http://www.w3.org/Graphics/SVG/1.1/DTD/svg11.dtd"><svg t="1584184303138" class="icon" viewBox="0 0 1024 1024" version="1.1" xmlns="http://www.w3.org/2000/svg" p-id="1987" xmlns:xlink="http://www.w3.org/1999/xlink" width="200" height="200"><defs><style type="text/css"></style></defs><path d="M0 0m170.666667 0l682.666666 0q170.666667 0 170.666667 170.666667l0 682.666666q0 170.666667-170.666667 170.666667l-682.666666 0q-170.666667 0-170.666667-170.666667l0-682.666666q0-170.666667 170.666667-170.666667Z" fill="#F5A738" p-id="1988"></path><path d="M170.666667 938.666667a85.333333 85.333333 0 0 1-85.333334-85.333334v-255.104l128-128 298.026667 298.026667L640 639.616l256 256V938.666667H170.666667z m554.666666-512a128 128 0 1 1 128-128 128 128 0 0 1-128 128z" fill="#FFFFFF" p-id="1989"></path></svg>