<?xml version="1.0" standalone="no"?><!DOCTYPE svg PUBLIC "-//W3C//DTD SVG 1.1//EN" "http://www.w3.org/Graphics/SVG/1.1/DTD/svg11.dtd"><svg t="1584184325090" class="icon" viewBox="0 0 1024 1024" version="1.1" xmlns="http://www.w3.org/2000/svg" p-id="2260" xmlns:xlink="http://www.w3.org/1999/xlink" width="200" height="200"><defs><style type="text/css"></style></defs><path d="M307.2 0h409.6A308.096 308.096 0 0 1 1024 307.2v409.6a308.096 308.096 0 0 1-307.2 307.2H307.2A308.096 308.096 0 0 1 0 716.8V307.2A308.096 308.096 0 0 1 307.2 0z" fill="#0392A7" p-id="2261"></path><path d="M547.84 642.56s15.36-76.8 20.48-130.56c2.56-23.04 15.36-58.88-17.92-58.88h-64l-33.28 192h-61.44l58.88-337.92h64L499.2 396.8h64a71.744 71.744 0 0 1 56.32 17.92 65.984 65.984 0 0 1 17.92 56.32c-10.24 81.92-30.72 171.52-30.72 171.52z m-281.6 0h-58.88l-17.92 89.6H128l56.32-332.8h133.12c51.2 0 104.96 43.52 79.36 138.24a127.616 127.616 0 0 1-130.56 104.96zM296.96 448h-58.88l-23.04 140.8h53.76s66.56 0 69.12-92.16a44.416 44.416 0 0 0-7.68-35.84 48.64 48.64 0 0 0-33.28-12.8z m596.48 87.04a128 128 0 0 1-133.12 107.52h-58.88l-17.92 89.6h-64l56.32-332.8h133.12c53.76-2.56 107.52 40.96 84.48 135.68zM791.04 448h-58.88l-23.04 140.8h53.76s66.56 0 69.12-92.16a44.416 44.416 0 0 0-7.68-35.84 48.64 48.64 0 0 0-33.28-12.8z" fill="#FFFFFF" p-id="2262"></path></svg>