<?xml version="1.0" standalone="no"?><!DOCTYPE svg PUBLIC "-//W3C//DTD SVG 1.1//EN" "http://www.w3.org/Graphics/SVG/1.1/DTD/svg11.dtd"><svg t="1584184187754" class="icon" viewBox="0 0 1024 1024" version="1.1" xmlns="http://www.w3.org/2000/svg" p-id="882" xmlns:xlink="http://www.w3.org/1999/xlink" width="200" height="200"><defs><style type="text/css"></style></defs><path d="M202.4 382.4h672v413.6h-672z" fill="#FFFFFF" p-id="883"></path><path d="M376.8 512h-44v68h84.8v-40c-1.6-16.8-16-26.4-40.8-28z m221.6 0h-44v68H640v-40c-2.4-16.8-16-26.4-41.6-28z" fill="#F98A19" p-id="884"></path><path d="M776 0H161.6c-37.6 0-68 30.4-68 68v887.2c0 37.6 30.4 68 68 68h751.2c37.6 0 68-30.4 68-68V204.8L776 0zM461.6 568.8c-1.6 28.8-18.4 44.8-50.4 46.4H328.8V712h-52V445.6h130.4c34.4 1.6 52.8 18.4 54.4 50.4v72.8z m210.4 0c-1.6 28.8-18.4 44.8-50.4 46.4H539.2V712h-52V445.6h130.4c34.4 1.6 52.8 18.4 54.4 50.4v72.8z m180.8-76.8h-56V712h-56V526.4c-1.6-21.6-15.2-32.8-41.6-34.4h-14.4v-46.4h168v46.4z" fill="#F98A19" p-id="885"></path><path d="M980.8 204.8h-136.8c-37.6 0-68-30.4-68-68V0l204.8 204.8z" fill="#FFD1A2" p-id="886"></path></svg>