<?xml version="1.0" standalone="no"?><!DOCTYPE svg PUBLIC "-//W3C//DTD SVG 1.1//EN" "http://www.w3.org/Graphics/SVG/1.1/DTD/svg11.dtd"><svg t="1584184199886" class="icon" viewBox="0 0 1024 1024" version="1.1" xmlns="http://www.w3.org/2000/svg" p-id="1026" xmlns:xlink="http://www.w3.org/1999/xlink" width="200" height="200"><defs><style type="text/css"></style></defs><path d="M315.73333333 648.53333333c-19.11466667 0-34.13333333 15.01866667-34.13333334 34.13333334s15.01866667 34.13333333 34.13333334 34.13333333 34.13333333-15.01866667 34.13333333-34.13333333-15.01866667-34.13333333-34.13333333-34.13333334z m0-409.6c-19.11466667 0-34.13333333 15.01866667-34.13333334 34.13333334s15.01866667 34.13333333 34.13333334 34.13333333 34.13333333-15.01866667 34.13333333-34.13333333-15.01866667-34.13333333-34.13333333-34.13333334z m0 204.8c-19.11466667 0-34.13333333 15.01866667-34.13333334 34.13333334s15.01866667 34.13333333 34.13333334 34.13333333 34.13333333-15.01866667 34.13333333-34.13333333-15.01866667-34.13333333-34.13333333-34.13333334zM827.73333333 34.13333333H213.33333333c-75.09333333 0-136.53333333 61.44-136.53333334 136.53333334v614.4c0 75.09333333 61.44 136.53333333 136.53333334 136.53333333h614.4c75.09333333 0 136.53333333-61.44 136.53333333-136.53333333V170.66666667c0-75.09333333-61.44-136.53333333-136.53333333-136.53333334z m68.26666666 750.93333334c0 37.54666667-30.72 68.26666667-68.26666666 68.26666666H213.33333333c-37.54666667 0-68.26666667-30.72-68.26666667-68.26666666V170.66666667c0-37.54666667 30.72-68.26666667 68.26666667-68.26666667h614.4c37.54666667 0 68.26666667 30.72 68.26666666 68.26666667v614.4zM725.33333333 238.93333333H452.26666666c-19.11466667 0-34.13333333 15.01866667-34.13333333 34.13333334s15.01866667 34.13333333 34.13333333 34.13333333h273.06666667c19.11466667 0 34.13333333-15.01866667 34.13333333-34.13333333s-15.01866667-34.13333333-34.13333333-34.13333334z m0 204.8H452.26666666c-19.11466667 0-34.13333333 15.01866667-34.13333333 34.13333334s15.01866667 34.13333333 34.13333333 34.13333333h273.06666667c19.11466667 0 34.13333333-15.01866667 34.13333333-34.13333333s-15.01866667-34.13333333-34.13333333-34.13333334z m0 204.8H452.26666666c-19.11466667 0-34.13333333 15.01866667-34.13333333 34.13333334s15.01866667 34.13333333 34.13333333 34.13333333h273.06666667c19.11466667 0 34.13333333-15.01866667 34.13333333-34.13333333s-15.01866667-34.13333333-34.13333333-34.13333334z" fill="#1296DB" p-id="1027"></path></svg>