<?xml version="1.0" standalone="no"?><!DOCTYPE svg PUBLIC "-//W3C//DTD SVG 1.1//EN" "http://www.w3.org/Graphics/SVG/1.1/DTD/svg11.dtd"><svg t="1609746049111" class="icon" viewBox="0 0 1025 1024" version="1.1" xmlns="http://www.w3.org/2000/svg" p-id="4655" xmlns:xlink="http://www.w3.org/1999/xlink" width="200.1953125" height="200"><defs><style type="text/css"></style></defs><path d="M437.178281 78.40223c-206.158604 0-373.288094 167.12949-373.288094 373.286094 0 206.164604 167.12949 373.293094 373.288094 373.293094 206.162604 0 373.292094-167.12949 373.292094-373.293094C810.471374 245.531719 643.341885 78.40223 437.178281 78.40223L437.178281 78.40223zM437.178281 751.269201c-165.188484 0-299.574878-134.391394-299.574878-299.580878 0-165.181484 134.386394-299.573878 299.574878-299.573878 165.187484 0 299.572878 134.392394 299.572878 299.573878C736.752158 616.877807 602.365765 751.269201 437.178281 751.269201L437.178281 751.269201zM437.178281 751.269201" p-id="4656" fill="#009688"></path><path d="M949.207781 896.894628 784.003297 731.657144c-15.488045 19.161056-32.703096 36.783108-51.10715 53.136156l164.197481 164.220481c7.198021 7.198021 16.624049 10.794032 26.057076 10.794032 9.432028 0 18.859055-3.596011 26.063076-10.794032C963.603823 934.618738 963.603823 911.29067 949.207781 896.894628L949.207781 896.894628zM949.207781 896.894628" p-id="4657" fill="#009688"></path></svg>