<?xml version="1.0" standalone="no"?><!DOCTYPE svg PUBLIC "-//W3C//DTD SVG 1.1//EN" "http://www.w3.org/Graphics/SVG/1.1/DTD/svg11.dtd"><svg t="1584184594735" class="icon" viewBox="0 0 1024 1024" version="1.1" xmlns="http://www.w3.org/2000/svg" p-id="5030" xmlns:xlink="http://www.w3.org/1999/xlink" width="200" height="200"><defs><style type="text/css"></style></defs><path d="M970.126222 862.321778h-53.930666v53.873778A107.804444 107.804444 0 0 1 808.448 1024H215.552a107.804444 107.804444 0 0 1-107.747556-107.804444v-53.873778H53.873778A53.873778 53.873778 0 0 1 0 808.391111V485.034667c0-29.752889 24.120889-53.873778 53.873778-53.873778h53.930666V107.804444C107.804444 48.241778 156.046222 0 215.552 0h485.091556l215.608888 215.608889v215.552h53.873778c29.752889 0 53.873778 24.120889 53.873778 53.873778v323.356444a53.873778 53.873778 0 0 1-53.873778 53.930667z m-808.391111 53.873778c0 29.752889 24.064 53.930667 53.816889 53.930666h592.896a53.873778 53.873778 0 0 0 53.873778-53.930666v-53.873778H161.678222v53.873778zM862.264889 269.482667h-107.804445a107.804444 107.804444 0 0 1-107.804444-107.804445V53.873778H215.608889a53.873778 53.873778 0 0 0-53.873778 53.930666v323.356445h700.643556V269.482667zM222.094222 713.159111c0.910222 43.861333 30.321778 95.004444 121.230222 95.004445 76.515556 0 123.790222-38.001778 123.790223-98.645334 0-56.775111-38.229333-78.734222-83.512889-88.007111l-46.819556-10.24c-27.591111-5.404444-42.097778-16.725333-42.097778-34.360889 0-22.584889 19.683556-37.091556 51.370667-37.091555 35.783111 0 53.646222 19.683556 55.182222 40.504889h61.098667c-0.682667-53.873778-47.047111-93.013333-116.053333-93.013334-65.422222 0-116.963556 33.962667-116.963556 95.004445 0 52.963556 36.181333 77.368889 79.644445 86.698666l46.364444 10.183111c31.232 6.826667 47.047111 16.497778 47.047111 37.091556 0 22.869333-19.456 38.684444-55.864889 38.684444-39.139556 0-59.733333-19.911111-61.553778-41.813333H222.094222z m573.667556 89.144889v-308.906667h-65.592889v123.562667h-124.472889V493.454222H540.103111v308.849778h65.592889v-129.194667h124.472889v129.137778h65.592889z" fill="#0096E6" p-id="5031"></path></svg>