<?xml version="1.0" standalone="no"?><!DOCTYPE svg PUBLIC "-//W3C//DTD SVG 1.1//EN" "http://www.w3.org/Graphics/SVG/1.1/DTD/svg11.dtd"><svg t="1584184512500" class="icon" viewBox="0 0 1024 1024" version="1.1" xmlns="http://www.w3.org/2000/svg" p-id="4217" xmlns:xlink="http://www.w3.org/1999/xlink" width="200" height="200"><defs><style type="text/css"></style></defs><path d="M712.38656 7.3728l0.3584 0.36864L927.39584 232.1408c0.11264 0.1024 0.22528 0.22528 0.32768 0.34816l6.63552 6.93248v707.66592c0 41.9328-34.11968 76.04224-76.06272 76.04224H163.62496c-41.94304 0-76.06272-34.11968-76.06272-76.04224V76.0832C87.552 34.12992 121.68192 0 163.62496 0h541.696l7.0656 7.3728zM416.19456 518.79936v-24.576a73.4208 73.4208 0 0 0-5.89824-28.75392 80.8448 80.8448 0 0 0-16.95744-25.31328 84.91008 84.91008 0 0 0-26.54208-18.18624c-10.32192-4.58752-21.7088-6.88128-34.16064-6.88128-14.41792 0-27.0336 2.53952-37.84704 7.61856s-19.74272 11.8784-26.78784 20.39808c-7.04512 8.51968-12.36992 18.67776-15.9744 30.47424a127.13984 127.13984 0 0 0-5.40672 37.35552c0 21.95456 3.6864 40.22272 11.0592 54.80448 7.3728 14.58176 21.87264 26.29632 43.49952 35.14368l35.88096 14.7456a116.5312 116.5312 0 0 1 14.99136 7.3728c3.76832 2.29376 6.71744 5.24288 8.84736 8.84736 2.12992 3.60448 3.52256 8.35584 4.17792 14.25408s0.98304 13.43488 0.98304 22.60992c0 7.86432-0.32768 15.07328-0.98304 21.62688-0.65536 6.5536-2.21184 12.04224-4.66944 16.46592-2.4576 4.42368-6.06208 7.86432-10.81344 10.32192-4.75136 2.4576-11.38688 3.6864-19.90656 3.6864-12.77952 0-21.87264-3.6864-27.27936-11.0592a40.96 40.96 0 0 1-8.11008-24.82176v-15.72864h-50.13504v18.67776c0 11.79648 2.21184 22.77376 6.63552 32.93184a82.3296 82.3296 0 0 0 17.94048 26.29632 82.6368 82.6368 0 0 0 27.0336 17.44896 89.2416 89.2416 0 0 0 33.91488 6.38976c16.05632 0 29.65504-2.62144 40.79616-7.86432s20.0704-12.36992 26.78784-21.38112c6.71744-9.0112 11.55072-19.82464 14.49984-32.44032 2.94912-12.61568 4.42368-26.29632 4.42368-41.04192 0-12.77952-0.65536-24.1664-1.96608-34.16064s-3.85024-18.8416-7.61856-26.54208a60.89728 60.89728 0 0 0-15.9744-20.15232c-6.88128-5.7344-15.89248-10.73152-27.0336-14.99136l-38.33856-15.23712c-6.5536-2.62144-11.71456-5.24288-15.48288-7.86432a28.20096 28.20096 0 0 1-8.6016-9.09312c-1.96608-3.44064-3.19488-7.53664-3.6864-12.288a173.6704 173.6704 0 0 1-0.73728-17.44896c0-5.89824 0.49152-11.55072 1.47456-16.95744a42.0864 42.0864 0 0 1 5.16096-14.25408c2.4576-4.096 5.89824-7.45472 10.32192-10.07616 4.42368-2.62144 10.07616-3.93216 16.95744-3.93216 12.77952 0 21.87264 4.17792 27.27936 12.53376 5.40672 8.35584 8.11008 18.26816 8.11008 29.73696v11.30496h50.13504zM500.736 685.42464V500.61312c0-12.12416 3.35872-21.05344 10.07616-26.78784 6.71744-5.7344 14.66368-8.6016 23.83872-8.6016 9.17504 0 17.12128 2.8672 23.83872 8.6016 6.71744 5.7344 10.07616 14.66368 10.07616 26.78784v185.79456l-20.15232-16.22016-25.55904 30.47424 22.60992 18.18624c-2.94912 1.31072-6.5536 1.96608-10.81344 1.96608-9.17504 0-17.12128-2.8672-23.83872-8.6016-6.71744-5.7344-10.07616-14.66368-10.07616-26.78784z m-50.13504-184.81152v184.81152c0 14.41792 2.4576 26.95168 7.3728 37.60128s11.38688 19.49696 19.41504 26.54208a83.69152 83.69152 0 0 0 27.0336 15.9744c9.99424 3.60448 20.0704 5.40672 30.22848 5.40672 9.50272 0 18.75968-1.47456 27.77088-4.42368a75.65312 75.65312 0 0 0 24.82176-13.76256l29.4912 24.08448 25.55904-30.47424L611.328 721.3056c4.9152-10.15808 7.3728-22.1184 7.3728-35.88096V500.61312c0-14.09024-2.4576-26.54208-7.3728-37.35552s-11.38688-19.74272-19.41504-26.78784a83.69152 83.69152 0 0 0-27.0336-15.9744 88.53504 88.53504 0 0 0-30.22848-5.40672c-10.15808 0-20.23424 1.80224-30.22848 5.40672a83.69152 83.69152 0 0 0-27.0336 15.9744c-8.02816 7.04512-14.49984 15.9744-19.41504 26.78784s-7.3728 23.26528-7.3728 37.35552z m212.33664-82.57536V768h149.42208v-50.13504h-99.28704v-299.8272H662.9376z" fill="#108EE9" p-id="4218"></path></svg>