<?xml version="1.0" standalone="no"?><!DOCTYPE svg PUBLIC "-//W3C//DTD SVG 1.1//EN" "http://www.w3.org/Graphics/SVG/1.1/DTD/svg11.dtd"><svg t="1584185096104" class="icon" viewBox="0 0 1024 1024" version="1.1" xmlns="http://www.w3.org/2000/svg" p-id="10930" xmlns:xlink="http://www.w3.org/1999/xlink" width="200" height="200"><defs><style type="text/css"></style></defs><path d="M-70.54222222-70.54222222h1165.08444444v1165.08444444H-70.54222222z" fill="#FFFFFF" fill-opacity="0" p-id="10931"></path><path d="M657.63555555 2.27555555l291.27111112 291.27111112v691.76888888c0 21.84533333-14.56355555 36.40888889-36.40888889 36.4088889H111.50222222c-21.84533333 0-36.40888889-14.56355555-36.40888889-36.4088889V38.68444445c0-21.84533333 14.56355555-36.40888889 36.40888889-36.4088889h546.13333333z" fill="#FFC93A" p-id="10932"></path><path d="M657.63555555 2.27555555l291.27111112 291.27111112h-254.86222222c-21.84533333 0-36.40888889-14.56355555-36.4088889-36.40888889V2.27555555z" fill-opacity=".2" p-id="10933"></path><path d="M317.81925925 515.88361482c19.41807408 15.53445925 31.06891852 34.95253333 31.06891853 66.02145185h-42.71976296c-3.88361482-19.41807408-11.65084445-31.06891852-23.3016889-38.83614815-3.88361482-7.76722963-19.41807408-11.65084445-42.71976295-11.65084444-19.41807408 0-31.06891852 3.88361482-42.71976297 7.76722962-11.65084445 7.76722963-19.41807408 15.53445925-19.41807408 31.06891852 0 11.65084445 7.76722963 23.30168889 19.41807408 31.06891853 7.76722963 3.88361482 23.30168889 7.76722963 46.60337778 15.53445925 38.83614815 11.65084445 62.13783703 19.41807408 73.78868147 27.1853037 23.30168889 15.53445925 34.95253333 34.95253333 34.95253334 58.25422222s-7.76722963 42.71976297-27.1853037 58.25422223-46.60337778 19.41807408-81.55591111 19.41807407-58.25422222-7.76722963-77.6722963-19.41807407c-23.30168889-15.53445925-34.95253333-42.71976297-38.83614815-77.6722963h42.71976297c3.88361482 23.30168889 11.65084445 38.83614815 23.30168888 46.60337778 15.53445925 11.65084445 31.06891852 15.53445925 54.37060741 15.53445926 19.41807408 0 38.83614815-3.88361482 50.48699259-11.65084444s19.41807408-15.53445925 19.41807407-27.1853037c0-15.53445925-7.76722963-27.1853037-27.1853037-34.95253334-7.76722963-3.88361482-23.30168889-7.76722963-54.3706074-19.41807408-34.95253333-11.65084445-58.25422222-19.41807408-66.02145185-23.30168888-19.41807408-11.65084445-31.06891852-31.06891852-31.06891852-54.37060742s11.65084445-42.71976297 31.06891852-58.25422221c19.41807408-11.65084445 42.71976297-19.41807408 73.78868148-19.41807407 31.06891852 0 58.25422222 7.76722963 73.78868147 19.41807407zM418.79324445 500.34915555l77.6722963 229.13327408 77.67229628-229.13327408h46.60337779l-100.97398519 275.73665186H473.16385185l-100.97398518-275.73665186h46.60337778zM853.7581037 519.76722963c19.41807408 15.53445925 31.06891852 38.83614815 38.83614815 69.90506667h-42.71976296c-3.88361482-19.41807408-11.65084445-31.06891852-27.18530371-42.71976297-11.65084445-7.76722963-31.06891852-15.53445925-54.3706074-15.53445925-27.1853037 0-46.60337778 7.76722963-62.13783703 27.1853037s-23.30168889 46.60337778-23.3016889 81.55591111 7.76722963 58.25422222 23.3016889 77.67229629 42.71976297 31.06891852 77.67229628 31.06891852c11.65084445 0 27.1853037 0 38.83614815-3.88361481s23.30168889-7.76722963 31.06891852-11.65084444V667.34459259h-77.67229629v-34.95253334h120.39205926v116.50844445c-15.53445925 11.65084445-31.06891852 19.41807408-50.48699259 27.18530371-23.30168889 3.88361482-46.60337778 7.76722963-69.90506667 7.76722962-42.71976297 0-77.6722963-15.53445925-100.97398519-42.71976295s-34.95253333-58.25422222-34.95253333-100.97398519 11.65084445-73.78868148 34.95253333-100.97398519 58.25422222-42.71976297 97.09037037-42.71976295c34.95253333 0 62.13783703 7.76722963 81.55591111 23.30168888z" fill="#FFFFFF" p-id="10934"></path></svg>