<?xml version="1.0" standalone="no"?><!DOCTYPE svg PUBLIC "-//W3C//DTD SVG 1.1//EN" "http://www.w3.org/Graphics/SVG/1.1/DTD/svg11.dtd"><svg t="1584184500660" class="icon" viewBox="0 0 1024 1024" version="1.1" xmlns="http://www.w3.org/2000/svg" p-id="4079" xmlns:xlink="http://www.w3.org/1999/xlink" width="200" height="200"><defs><style type="text/css"></style></defs><path d="M40.770707 695.832208h76.809101v77.355136L40.770707 695.832208z" fill="#5D5DDA" p-id="4080"></path><path d="M928.625667 1024H153.982225a54.603626 54.603626 0 0 1-54.603626-54.603626V54.603626a54.603626 54.603626 0 0 1 54.603626-54.603626h585.168859a54.603626 54.603626 0 0 1 38.586563 16.017064L967.212229 205.491646a54.603626 54.603626 0 0 1 16.017064 38.586562v725.318166a54.603626 54.603626 0 0 1-54.603626 54.603626zM153.982225 36.402417a18.201209 18.201209 0 0 0-18.201208 18.201209v914.792748a18.201209 18.201209 0 0 0 18.201208 18.201209h774.643442a18.201209 18.201209 0 0 0 18.201208-18.201209V244.078208a18.201209 18.201209 0 0 0-5.27835-12.922858L752.073942 41.680768a18.201209 18.201209 0 0 0-12.922858-5.278351z" fill="#5D5DDA" p-id="4081"></path><path d="M823.42268 327.621756H77.173125a36.402417 36.402417 0 0 0-36.402418 36.402417v331.261998h782.651973a36.402417 36.402417 0 0 0 36.402418-36.402417V364.024173a36.402417 36.402417 0 0 0-36.402418-36.402417zM277.38642 622.299325h-40.952719V436.829008H168.179168v-34.764308h178.007821V436.829008H277.38642z m215.138287 0l-20.203342-56.059723h-82.815499l-19.293282 56.059723h-40.770707L404.794881 402.0647h51.691433l79.175257 220.234625z m235.159616-52.965518v10.374689a166.541059 166.541059 0 0 0 3.094205 42.590829h-39.132598a156.894419 156.894419 0 0 1-4.186278-48.77924v-3.640241c0-26.573765-7.098471-38.768574-43.864913-38.768575h-36.402418v91.006043h-40.224671V402.0647H659.611802c46.959118 0 72.804835 25.845716 72.804835 59.881976a51.691433 51.691433 0 0 1-33.854248 52.055457c13.286882 4.36829 29.485958 16.381088 29.485958 55.331674z" fill="#5D5DDA" p-id="4082"></path><path d="M651.967295 435.372911h-44.410949v62.430146h42.590828c28.75791 0 40.406683-10.920725 40.406683-31.488091s-12.740846-30.942055-38.586562-30.942055zM429.912549 432.824742c-5.460363 20.567366-17.109136 56.059723-31.124067 99.196588h64.432279c-18.201209-50.417348-27.847849-80.449342-32.944188-99.196588zM754.258087 18.201209v178.371845a33.308212 33.308212 0 0 0 32.762176 33.308212h177.279773z" fill="#5D5DDA" p-id="4083"></path></svg>