<?xml version="1.0" standalone="no"?><!DOCTYPE svg PUBLIC "-//W3C//DTD SVG 1.1//EN" "http://www.w3.org/Graphics/SVG/1.1/DTD/svg11.dtd"><svg t="1584184341006" class="icon" viewBox="0 0 1024 1024" version="1.1" xmlns="http://www.w3.org/2000/svg" p-id="2396" xmlns:xlink="http://www.w3.org/1999/xlink" width="200" height="200"><defs><style type="text/css"></style></defs><path d="M944.571703 291.65846v653.041995c0 42.546693-35.196123 77.35656-78.22271 77.35656H156.6444C113.617813 1022.057015 78.42169 987.247148 78.42169 944.700455V78.843061c0-42.546693 35.207828-77.35656 78.22271-77.35656h502.601102" fill="#3B9DFF" p-id="2397"></path><path d="M659.245502 1.486501L944.571703 291.670164H691.140891s-25.750406-9.820268-31.895389-39.292778z" fill="#B8DFFF" p-id="2398"></path><path d="M588.361658 472.13369c-17.650733 0-33.615984-0.292618-49.557827 0.339437-2.188784 0.081933-5.068148 4.342455-6.203506 7.350571-5.489518 14.548979-10.534257 29.332053-15.660929 44.033193-2.516517 7.139885-5.009624 14.27977-8.345472 23.795716-10.83858-24.661866-20.249183-46.479482-30.104566-68.039595-1.439682-3.148572-4.99792-7.022838-7.690007-7.163294-15.637519-0.678874-31.321857-0.327732-48.340535-0.327733 2.130261 4.681892 3.511419 8.087968 5.138377 11.330179 14.197837 28.641474 28.091352 57.458519 42.827606 85.748851 4.260522 8.193311 3.710399 13.799877-0.84274 21.489884-19.593718 33.065862-38.625609 66.588208-57.739433 99.981803-1.790824 3.113458-3.347553 6.402487-5.782136 11.107789 16.070594 0 30.701507-0.374551 45.297304 0.163866 6.905791 0.257504 11.096084-2.024918 14.876712-8.9073 12.933727-23.573326 26.604851-46.619939 40.73246-71.188167 11.892006 24.755504 22.999794 48.094735 34.329973 71.305215 1.545024 3.160277 4.073246 8.029445 6.26203 8.111377 17.170839 0.66717 34.376792 0.374551 52.928789 0.374552-2.82084-5.255424-4.518026-8.556158-6.343964-11.774958-19.207462-33.814965-38.251057-67.735272-57.809661-101.292733-3.792332-6.50783-3.792332-11.002446-0.187275-17.557095 12.1261-21.946369 23.63185-44.325812 35.336579-66.564799 5.372471-10.183115 10.651304-20.413049 16.866516-32.340168M350.217223 701.218664V517.946003h54.684498v-45.168553h-150.991015v46.327321h53.127769v182.113893h43.178748zM714.409894 701.218664V517.934298h54.672794v-45.145143h-150.991016v46.339026h55.176097v182.090483h41.142125z" fill="#FFFFFF" p-id="2399"></path></svg>