<?xml version="1.0" standalone="no"?><!DOCTYPE svg PUBLIC "-//W3C//DTD SVG 1.1//EN" "http://www.w3.org/Graphics/SVG/1.1/DTD/svg11.dtd"><svg t="1584184277844" class="icon" viewBox="0 0 1024 1024" version="1.1" xmlns="http://www.w3.org/2000/svg" p-id="1850" xmlns:xlink="http://www.w3.org/1999/xlink" width="200" height="200"><defs><style type="text/css"></style></defs><path d="M932.693333 1024H89.6a61.866667 61.866667 0 0 1-61.653333-61.653333V61.653333A61.866667 61.866667 0 0 1 89.6 0h609.066667l295.68 304.853333v657.493334A61.653333 61.653333 0 0 1 932.693333 1024z" fill="#9079F2" p-id="1851"></path><path d="M699.093333 1.28a14.506667 14.506667 0 0 0-1.066666 6.186667V245.333333a61.653333 61.653333 0 0 0 61.44 61.44h236.586666L700.373333 1.28z" fill="#D2C8FC" p-id="1852"></path><path d="M459.093333 613.76v-7.466667c0-31.146667 9.173333-56.533333 62.293334-96.426666 37.973333-28.373333 49.493333-42.666667 49.706666-69.333334 0-31.36-21.333333-60.586667-74.666666-60.586666a74.24 74.24 0 0 0-81.28 64h-61.866667c4.48-39.466667 31.36-112.853333 145.493333-112.853334 97.28 0 135.68 57.386667 135.68 106.666667 0 42.666667-14.506667 67.2-65.493333 104.96-34.56 25.173333-45.653333 42.666667-45.653333 66.56v3.626667z m0 120.746667v-80.426667h64v80.426667z" fill="#FFFFFF" p-id="1853"></path></svg>