<?xml version="1.0" standalone="no"?><!DOCTYPE svg PUBLIC "-//W3C//DTD SVG 1.1//EN" "http://www.w3.org/Graphics/SVG/1.1/DTD/svg11.dtd"><svg t="1584184481189" class="icon" viewBox="0 0 1024 1024" version="1.1" xmlns="http://www.w3.org/2000/svg" p-id="3808" xmlns:xlink="http://www.w3.org/1999/xlink" width="200" height="200"><defs><style type="text/css"></style></defs><path d="M912.676571 73.508571H111.030857a111.177143 111.177143 0 0 0-110.592 111.908572v699.026286c0 61.805714 49.517714 111.908571 110.518857 111.908571h801.718857a111.177143 111.177143 0 0 0 110.592-111.908571V185.344a111.177143 111.177143 0 0 0-110.592-111.835429z m-195.730285 506.88l-267.264 171.300572a60.269714 60.269714 0 0 1-60.416 3.145143 53.394286 53.394286 0 0 1-31.232-48.64V363.666286a53.394286 53.394286 0 0 1 31.232-48.713143 60.342857 60.342857 0 0 1 60.416 3.218286L716.8 489.325714c16.530286 10.678857 25.6 26.770286 25.6 45.568a52.736 52.736 0 0 1-25.6 45.568z" fill="#00CF9B" p-id="3809"></path></svg>