<?xml version="1.0" standalone="no"?><!DOCTYPE svg PUBLIC "-//W3C//DTD SVG 1.1//EN" "http://www.w3.org/Graphics/SVG/1.1/DTD/svg11.dtd"><svg t="1584184217197" class="icon" viewBox="0 0 1024 1024" version="1.1" xmlns="http://www.w3.org/2000/svg" p-id="1167" xmlns:xlink="http://www.w3.org/1999/xlink" width="200" height="200"><defs><style type="text/css"></style></defs><path d="M114.880886 56.731302C114.880886 25.529086 140.409972 0 171.612188 0h453.850416l283.65651 283.65651v680.775623c0 31.202216-25.529086 56.731302-56.731302 56.731302H171.612188c-31.202216 0-56.731302-25.529086-56.731302-56.731302V56.731302z" fill="#4D94F6" p-id="1168"></path><path d="M625.462604 0l283.65651 283.65651h-226.925208c-31.202216 0-56.731302-25.529086-56.731302-56.731302V0z" fill="#2F7BE5" p-id="1169"></path><path d="M682.193906 439.66759h-36.875346l-65.240998 204.232687-70.914127-204.232687h-31.202216l-70.914128 204.232687L341.806094 439.66759H302.094183l85.096953 252.454294h34.038781l73.750692-201.396122 73.750693 201.396122h28.365651l85.096953-252.454294z" fill="#FFFFFF" p-id="1170"></path></svg>