<?xml version="1.0" standalone="no"?><!DOCTYPE svg PUBLIC "-//W3C//DTD SVG 1.1//EN" "http://www.w3.org/Graphics/SVG/1.1/DTD/svg11.dtd"><svg t="1584184530815" class="icon" viewBox="0 0 1024 1024" version="1.1" xmlns="http://www.w3.org/2000/svg" p-id="4488" xmlns:xlink="http://www.w3.org/1999/xlink" width="200" height="200"><defs><style type="text/css"></style></defs><path d="M960.077576 448.077576V287.961212L671.961212 0H95.728485a31.030303 31.030303 0 0 0-31.030303 31.030303v417.047273H0v447.922424h64.077576V992.969697a31.030303 31.030303 0 0 0 31.030303 31.030303h833.163636a31.030303 31.030303 0 0 0 31.030303-31.030303v-96.969697H1024V448.077576z m-63.922424 512H128v-64.077576h768zM181.527273 543.030303h39.563636l45.459394 64.387879a364.916364 364.916364 0 0 1 20.169697 31.030303 325.818182 325.818182 0 0 1 19.859394-28.547879L356.848485 543.030303h36.150303l-88.126061 118.225455 94.952728 132.654545h-40.804849l-63.146667-89.522424q-5.275152-7.757576-11.015757-16.756364-8.378182 13.653333-11.946667 18.773333l-62.991515 87.505455H170.666667l96.969697-130.792727z m381.362424 251.655758h-29.944242l-72.61091-213.643637v213.643637h-31.961212V543.030303h49.958788l59.423031 177.648485q8.22303 24.824242 11.946666 37.081212 4.344242-13.653333 13.34303-40.184242L623.088485 543.030303H667.151515v251.655758h-31.030303V584.610909z m313.871515-29.63394v29.63394H719.90303V543.030303h33.202425v222.021818z m19.238788-316.974545H128V64.077576h543.961212v223.883636h224.038788z" fill="#e16531" p-id="4489"></path></svg>