<?xml version="1.0" standalone="no"?><!DOCTYPE svg PUBLIC "-//W3C//DTD SVG 1.1//EN" "http://www.w3.org/Graphics/SVG/1.1/DTD/svg11.dtd"><svg t="1584184238187" class="icon" viewBox="0 0 1024 1024" version="1.1" xmlns="http://www.w3.org/2000/svg" p-id="1441" xmlns:xlink="http://www.w3.org/1999/xlink" width="200" height="200"><defs><style type="text/css"></style></defs><path d="M128 192h768a128 128 0 0 1 128 128v448a128 128 0 0 1-128 128H128a128 128 0 0 1-128-128V320a128 128 0 0 1 128-128z m129.088 378.944l126.592-123.52H382.72l1.472-62.592-64-2.88v65.472h-0.32L226.56 532.928 129.28 448.896V384H64.96v63.36H63.808l1.152 1.152v0.832h0.896l126.016 124.8v129.088h65.28V570.944z m564.48-186.88h-57.152V704h198.272v-60.8h-141.12V384z m-385.216-2.56v320h52.288V476.672L561.728 576.64h34.048l70.976-104.896v227.072l50.88 2.56V381.504l-50.88-2.56v10.24L578.56 512l-89.6-129.92-52.608-0.576z" fill="#588EB7" p-id="1442"></path></svg>