<?xml version="1.0" standalone="no"?><!DOCTYPE svg PUBLIC "-//W3C//DTD SVG 1.1//EN" "http://www.w3.org/Graphics/SVG/1.1/DTD/svg11.dtd"><svg t="1584184488722" class="icon" viewBox="0 0 1024 1024" version="1.1" xmlns="http://www.w3.org/2000/svg" p-id="3943" xmlns:xlink="http://www.w3.org/1999/xlink" width="200" height="200"><defs><style type="text/css"></style></defs><path d="M665.226383 663.671312c5.841407-2.164346 10.891547-6.097405 14.428973-11.240636a30.719749 30.719749 0 0 0 5.23632-17.80349 29.556122 29.556122 0 0 0-7.307576-20.596195 31.953193 31.953193 0 0 0-18.571485-10.123554 222.182909 222.182909 0 0 0-33.233182-1.582532h-22.341636v64.907105h25.250703c18.222396 0 30.393933-1.163627 36.537883-3.560698z" fill="#21A675" p-id="3944"></path><path d="M915.057066 482.448067h-26.367784V220.515665a9.588285 9.588285 0 0 0-0.558541-3.21161 9.588285 9.588285 0 0 0-2.234164-10.007191L681.424068 2.801083a9.588285 9.588285 0 0 0-16.360593 6.818853v204.472509c0 5.282866 4.282147 9.588285 9.565013 9.588285h194.907496v258.79061H121.92901V20.790754h499.987182a9.588285 9.588285 0 1 0 0-19.153298H112.340724a9.588285 9.588285 0 0 0-9.588285 9.588285V482.448067H76.384655c-15.429692 0-27.927044 12.497352-27.927044 27.927044v327.491139c0 15.452964 12.497352 27.973589 27.927044 27.973589h26.367784v52.153756A106.076223 106.076223 0 0 0 208.735572 1024h670.388697a9.588285 9.588285 0 0 0 9.565013-9.588285v-148.548603h26.367784c15.429692 0 27.950317-12.520625 27.950317-27.973589V510.421657c0-15.429692-12.520625-27.950317-27.950317-27.950317zM684.216773 204.527432v-171.751322l171.751322 171.751322H684.216773zM557.265084 563.669221h74.076485c28.089952 0 46.382166 1.163627 54.923187 3.421063 13.195528 3.490881 24.808524 11.403543 32.907367 22.364908 8.843564 11.496633 13.265346 26.344512 13.265346 44.543635a74.658298 74.658298 0 0 1-7.633392 35.397529 62.719487 62.719487 0 0 1-19.432568 22.574361c-7.167941 5.119958-15.313329 8.820291-23.924168 10.821729-15.825325 2.513434-31.883375 3.583971-47.941426 3.188338h-30.09139v86.271294h-46.149441V563.669221z m-90.157808 0h46.149441v228.69922h-46.149441V563.669221z m-213.595343 187.157741l120.202653-148.478785H267.103095V563.669221h167.32954v35.886252l-125.299339 154.296919h130.093481v38.516049h-185.714844v-41.541479z m616.024051 253.996468H208.735572a86.899653 86.899653 0 0 1-86.806562-86.806563v-52.153755h747.606974v138.960318z" fill="#21A675" p-id="3945"></path></svg>